<svg width="70" height="70" viewBox="0 0 70 70" fill="none" xmlns="http://www.w3.org/2000/svg">
<circle cx="35" cy="35" r="35" fill="#264DE4"/>
<path d="M52.641 58.7866L57.2353 16.2501H34.7187H12.3529L16.5938 58.7866L34.7187 65.7267L52.641 58.7866Z" fill="white"/>
<path d="M26.0703 7.53522C26.0703 6.78856 26.327 6.20989 26.8403 5.79922C27.363 5.37922 28.147 5.16922 29.1923 5.16922C29.883 5.16922 30.471 5.23456 30.9563 5.36522V7.29722C30.4336 7.13856 29.9156 7.05922 29.4023 7.05922C28.8983 7.05922 28.5716 7.11989 28.4223 7.24122C28.273 7.35322 28.1983 7.52122 28.1983 7.74522V12.4492C28.1983 12.8972 28.5483 13.1212 29.2483 13.1212C29.9576 13.1212 30.541 13.0512 30.9983 12.9112V14.8012C30.4943 14.9412 29.883 15.0112 29.1643 15.0112C28.119 15.0112 27.3396 14.8059 26.8263 14.3952C26.3223 13.9846 26.0703 13.4059 26.0703 12.6592V7.53522ZM31.6298 7.50722C31.6298 6.76056 31.8818 6.18656 32.3858 5.78522C32.8898 5.37456 33.6132 5.16922 34.5558 5.16922C35.5078 5.16922 36.2172 5.26722 36.6838 5.46322V7.47922C36.1145 7.23656 35.4658 7.11522 34.7378 7.11522C34.3645 7.11522 34.1125 7.17589 33.9818 7.29722C33.8512 7.40922 33.7858 7.57256 33.7858 7.78722V7.99722C33.7858 8.25856 33.8278 8.45456 33.9118 8.58522C34.0052 8.70656 34.2012 8.84656 34.4998 9.00522L36.0958 9.90122C36.8612 10.3212 37.2438 10.9512 37.2438 11.7912V12.6592C37.2438 13.4152 36.9638 13.9986 36.4038 14.4092C35.8438 14.8106 35.0552 15.0112 34.0378 15.0112C33.0298 15.0112 32.2692 14.9039 31.7558 14.6892V12.6592C32.3905 12.9299 33.1092 13.0652 33.9118 13.0652C34.7145 13.0652 35.1158 12.8366 35.1158 12.3792V12.1692C35.1158 11.9546 35.0692 11.7959 34.9758 11.6932C34.8918 11.5812 34.7285 11.4599 34.4858 11.3292L32.9878 10.5172C32.0825 10.0132 31.6298 9.30389 31.6298 8.38922V7.50722ZM37.7822 7.50722C37.7822 6.76056 38.0342 6.18656 38.5382 5.78522C39.0422 5.37456 39.7655 5.16922 40.7082 5.16922C41.6602 5.16922 42.3695 5.26722 42.8362 5.46322V7.47922C42.2668 7.23656 41.6182 7.11522 40.8902 7.11522C40.5168 7.11522 40.2648 7.17589 40.1342 7.29722C40.0035 7.40922 39.9382 7.57256 39.9382 7.78722V7.99722C39.9382 8.25856 39.9802 8.45456 40.0642 8.58522C40.1575 8.70656 40.3535 8.84656 40.6522 9.00522L42.2482 9.90122C43.0135 10.3212 43.3962 10.9512 43.3962 11.7912V12.6592C43.3962 13.4152 43.1162 13.9986 42.5562 14.4092C41.9962 14.8106 41.2075 15.0112 40.1902 15.0112C39.1822 15.0112 38.4215 14.9039 37.9082 14.6892V12.6592C38.5428 12.9299 39.2615 13.0652 40.0642 13.0652C40.8668 13.0652 41.2682 12.8366 41.2682 12.3792V12.1692C41.2682 11.9546 41.2215 11.7959 41.1282 11.6932C41.0442 11.5812 40.8808 11.4599 40.6382 11.3292L39.1402 10.5172C38.2348 10.0132 37.7822 9.30389 37.7822 8.38922V7.50722Z" fill="white"/>
<path d="M16.9472 19.6089H53.3478L50.0387 56.0096L34.3954 60.522L20.5572 56.0096V45.4804H25.9722L27.4763 50.5946L34.3954 52.7004L43.4204 50.5946V42.1713H20.5572H18.4514V34.3497H43.4204V27.4305H18.4514L16.9472 19.6089Z" fill="#264DE4"/>
</svg>
