<svg width="71" height="71" viewBox="0 0 71 71" fill="none" xmlns="http://www.w3.org/2000/svg">
<mask id="mask0_201_437" style="mask-type:luminance" maskUnits="userSpaceOnUse" x="0" y="0" width="71" height="71">
<path d="M0.603027 0.606445H70.603V70.6064H0.603027V0.606445Z" fill="white"/>
</mask>
<g mask="url(#mask0_201_437)">
<path d="M69.2824 32.4896L38.7208 1.92805C38.6687 1.87589 38.6154 1.82487 38.5607 1.77539C38.506 1.72591 38.4502 1.67758 38.3931 1.63079C38.3361 1.58399 38.278 1.53873 38.2188 1.49462C38.1595 1.4507 38.0993 1.40832 38.0379 1.36727C37.9765 1.32623 37.9142 1.28672 37.8509 1.24894C37.7878 1.21097 37.7236 1.17453 37.6585 1.13982C37.5935 1.10491 37.5276 1.07173 37.4608 1.04028C37.3943 1.00864 37.3268 0.978909 37.2587 0.950525C37.1904 0.922333 37.1217 0.895866 37.0523 0.870934C36.9827 0.846002 36.9127 0.822988 36.8421 0.801508C36.7715 0.780028 36.7006 0.760466 36.6289 0.742439C36.5573 0.724603 36.4854 0.708493 36.4131 0.693917C36.3408 0.679533 36.2681 0.667067 36.195 0.656135C36.1222 0.645395 36.0489 0.636381 35.9754 0.629094C35.902 0.621806 35.8285 0.616436 35.7549 0.612792C35.6812 0.609148 35.6074 0.607422 35.5336 0.607422C35.4599 0.607422 35.3861 0.609148 35.3124 0.612792C35.2388 0.616436 35.1653 0.621806 35.0919 0.629094C35.0184 0.636381 34.9452 0.645395 34.8723 0.656135C34.7992 0.667067 34.7265 0.679533 34.6542 0.693917C34.5819 0.708493 34.51 0.724603 34.4385 0.742439C34.3667 0.760466 34.2958 0.780028 34.2252 0.801508C34.1546 0.822988 34.0846 0.846002 34.015 0.870934C33.9456 0.895866 33.8767 0.922333 33.8087 0.950525C33.7406 0.978909 33.6731 1.00864 33.6065 1.04028C33.5398 1.07173 33.4738 1.10491 33.4088 1.13982C33.3438 1.17453 33.2795 1.21097 33.2164 1.24894C33.1531 1.28672 33.0908 1.32623 33.0294 1.36727C32.9681 1.40832 32.9078 1.4507 32.8486 1.49462C32.7893 1.53873 32.7312 1.58399 32.6742 1.63079C32.6171 1.67758 32.5613 1.72591 32.5066 1.77539C32.452 1.82487 32.3986 1.87589 32.3465 1.92805L26.0028 8.27173L34.0528 16.3217C35.9252 15.6654 38.069 16.114 39.5609 17.6059C39.6491 17.6941 39.734 17.7856 39.8159 17.88C39.8978 17.9741 39.9763 18.0714 40.0513 18.1711C40.1264 18.271 40.1978 18.3732 40.2657 18.4781C40.3336 18.5829 40.3978 18.6899 40.4582 18.7992C40.5186 18.9085 40.5752 19.0197 40.6278 19.1331C40.6805 19.2462 40.729 19.3613 40.7737 19.4779C40.8182 19.5945 40.8587 19.7127 40.8951 19.8321C40.9315 19.9516 40.9636 20.0721 40.9916 20.1938C41.0194 20.3156 41.0432 20.4382 41.0623 20.5615C41.0817 20.6848 41.0969 20.8089 41.1074 20.9332C41.1182 21.0576 41.1245 21.1823 41.1266 21.3072C41.1285 21.432 41.126 21.5569 41.1193 21.6815C41.1126 21.8062 41.1015 21.9307 41.0861 22.0545C41.0706 22.1784 41.0508 22.3016 41.0269 22.4241C41.0027 22.5467 40.9745 22.6683 40.9419 22.7889C40.9093 22.9095 40.8727 23.0288 40.8318 23.1468L48.5909 30.9058C50.4677 30.2583 52.6333 30.676 54.1317 32.1789C54.1939 32.241 54.2545 32.3045 54.3135 32.3697C54.3724 32.4347 54.4298 32.5011 54.4856 32.569C54.5414 32.6369 54.5955 32.7061 54.6476 32.7767C54.7 32.8472 54.7506 32.919 54.7995 32.992C54.8482 33.0649 54.8952 33.1391 54.9405 33.2145C54.9856 33.2899 55.0289 33.3662 55.0703 33.4437C55.1118 33.5212 55.1513 33.5994 55.1888 33.6788C55.2264 33.7582 55.2619 33.8386 55.2957 33.9197C55.3292 34.0008 55.3609 34.0827 55.3904 34.1654C55.4201 34.248 55.4476 34.3315 55.4731 34.4155C55.4988 34.4995 55.5222 34.5842 55.5435 34.6694C55.5647 34.7546 55.5841 34.8403 55.6012 34.9264C55.6184 35.0125 55.6334 35.099 55.6463 35.1859C55.6591 35.2728 55.67 35.36 55.6787 35.4473C55.6871 35.5347 55.6936 35.6224 55.698 35.71C55.7023 35.7977 55.7046 35.8855 55.7046 35.9733C55.7046 36.0612 55.7023 36.149 55.698 36.2367C55.6938 36.3245 55.6873 36.412 55.6787 36.4994C55.67 36.5869 55.6593 36.6739 55.6464 36.7608C55.6336 36.8477 55.6186 36.9342 55.6014 37.0203C55.5843 37.1066 55.5651 37.1921 55.5437 37.2773C55.5224 37.3626 55.499 37.4472 55.4735 37.5312C55.448 37.6152 55.4205 37.6986 55.3908 37.7813C55.3613 37.8642 55.3296 37.946 55.2961 38.0272C55.2625 38.1083 55.2268 38.1885 55.1892 38.2679C55.1518 38.3473 55.1123 38.4257 55.0709 38.5032C55.0295 38.5807 54.9861 38.657 54.9411 38.7324C54.8958 38.8077 54.8488 38.882 54.8001 38.955C54.7512 39.0279 54.7008 39.0998 54.6484 39.1702C54.596 39.2408 54.542 39.31 54.4863 39.3779C54.4305 39.4458 54.3732 39.5124 54.3141 39.5774C54.2552 39.6424 54.1946 39.7061 54.1325 39.7682C54.0704 39.8301 54.0069 39.8907 53.9417 39.9498C53.8767 40.0087 53.8101 40.066 53.7422 40.1217C53.6743 40.1775 53.6051 40.2315 53.5345 40.2837C53.4639 40.3361 53.3922 40.3867 53.3191 40.4354C53.2461 40.4841 53.172 40.5311 53.0967 40.5764C53.0213 40.6214 52.9448 40.6646 52.8673 40.706C52.79 40.7474 52.7116 40.787 52.632 40.8244C52.5526 40.8619 52.4724 40.8976 52.3913 40.9312C52.3102 40.9647 52.2281 40.9964 52.1454 41.0259C52.0628 41.0555 51.9793 41.0829 51.8953 41.1084C51.8113 41.1339 51.7266 41.1573 51.6414 41.1786C51.5563 41.1999 51.4705 41.219 51.3844 41.2363C51.2983 41.2534 51.2116 41.2683 51.1247 41.2812C51.0379 41.294 50.9508 41.3048 50.8633 41.3134C50.7759 41.3218 50.6884 41.3284 50.6006 41.3326C50.5129 41.3368 50.4251 41.3391 50.3373 41.3389C50.2494 41.3389 50.1618 41.3368 50.0739 41.3324C49.9863 41.328 49.8987 41.3217 49.8114 41.3128C49.7239 41.3042 49.6369 41.2935 49.55 41.2806C49.4631 41.2676 49.3766 41.2526 49.2903 41.2353C49.2042 41.2183 49.1187 41.1989 49.0333 41.1776C48.9482 41.1561 48.8636 41.1327 48.7796 41.1072C48.6956 41.0817 48.6122 41.0541 48.5295 41.0244C48.4468 40.9948 48.3649 40.9632 48.2838 40.9294C48.2027 40.8959 48.1223 40.8602 48.0429 40.8226C47.9635 40.785 47.8853 40.7455 47.8078 40.7041C47.7303 40.6627 47.654 40.6193 47.5786 40.5741C47.5034 40.529 47.4292 40.482 47.3562 40.4331C47.2833 40.3842 47.2114 40.3336 47.141 40.2812C47.0704 40.2289 47.0012 40.1748 46.9335 40.1192C46.8656 40.0633 46.799 40.006 46.734 39.9469C46.669 39.8879 46.6053 39.8273 46.5434 39.7651C44.9684 38.1902 44.5789 35.8715 45.3752 33.931L38.139 26.6948V45.7371C38.6677 45.9987 39.1416 46.337 39.5609 46.752C39.623 46.8142 39.6834 46.8777 39.7425 46.9427C39.8014 47.0077 39.8587 47.0742 39.9143 47.1421C39.9701 47.21 40.024 47.2791 40.0764 47.3496C40.1287 47.4202 40.1792 47.492 40.2279 47.565C40.2768 47.6379 40.3238 47.7121 40.3689 47.7873C40.4139 47.8627 40.4573 47.939 40.4987 48.0165C40.5399 48.094 40.5794 48.1722 40.617 48.2516C40.6544 48.331 40.6901 48.4112 40.7237 48.4923C40.7572 48.5734 40.7889 48.6553 40.8184 48.738C40.8479 48.8206 40.8755 48.9041 40.9011 48.9881C40.9266 49.0721 40.95 49.1566 40.9712 49.2418C40.9925 49.3269 41.0117 49.4125 41.029 49.4986C41.046 49.5847 41.061 49.6712 41.0739 49.7581C41.0869 49.845 41.0976 49.932 41.1063 50.0193C41.1147 50.1067 41.1212 50.1942 41.1256 50.282C41.1299 50.3697 41.132 50.4573 41.132 50.5452C41.132 50.633 41.1299 50.7207 41.1256 50.8083C41.1212 50.8961 41.1147 50.9836 41.1063 51.071C41.0976 51.1583 41.0869 51.2454 41.0739 51.3323C41.061 51.4191 41.046 51.5056 41.029 51.5917C41.0117 51.6778 40.9925 51.7634 40.9712 51.8485C40.95 51.9337 40.9266 52.0183 40.9011 52.1023C40.8755 52.1863 40.8479 52.2697 40.8184 52.3524C40.7889 52.435 40.7572 52.5169 40.7237 52.598C40.6901 52.6792 40.6544 52.7593 40.617 52.8387C40.5794 52.9181 40.5399 52.9964 40.4987 53.0739C40.4573 53.1513 40.4139 53.2277 40.3689 53.303C40.3238 53.3782 40.2768 53.4524 40.2279 53.5253C40.1792 53.5984 40.1287 53.6701 40.0764 53.7407C40.024 53.8113 39.9701 53.8803 39.9143 53.9482C39.8587 54.0161 39.8014 54.0826 39.7425 54.1477C39.6834 54.2127 39.623 54.2762 39.5609 54.3383C39.4987 54.4004 39.4352 54.4608 39.3702 54.5199C39.305 54.5788 39.2387 54.6361 39.1708 54.6918C39.1029 54.7476 39.0336 54.8015 38.9633 54.8538C38.8927 54.9062 38.821 54.9566 38.7479 55.0053C38.675 55.0542 38.6008 55.1012 38.5256 55.1463C38.4502 55.1914 38.3739 55.2347 38.2964 55.2761C38.2189 55.3174 38.1407 55.3569 38.0613 55.3944C37.9819 55.432 37.9017 55.4675 37.8206 55.5011C37.7395 55.5346 37.6576 55.5663 37.5749 55.5958C37.4923 55.6256 37.4088 55.653 37.3248 55.6785C37.2408 55.704 37.1563 55.7274 37.0711 55.7487C36.986 55.77 36.9004 55.7893 36.8143 55.8064C36.7282 55.8235 36.6417 55.8384 36.5548 55.8515C36.4679 55.8643 36.3809 55.8751 36.2936 55.8837C36.2062 55.8923 36.1187 55.8987 36.0309 55.9031C35.9432 55.9073 35.8556 55.9094 35.7677 55.9094C35.6799 55.9094 35.5923 55.9073 35.5044 55.9031C35.4168 55.8987 35.3293 55.8923 35.2419 55.8837C35.1546 55.8751 35.0675 55.8643 34.9807 55.8515C34.8938 55.8384 34.8073 55.8235 34.7212 55.8064C34.6351 55.7893 34.5495 55.77 34.4644 55.7487C34.3792 55.7274 34.2946 55.704 34.2106 55.6785C34.1266 55.653 34.0432 55.6254 33.9605 55.5958C33.8779 55.5663 33.796 55.5346 33.7149 55.5011C33.6337 55.4675 33.5536 55.432 33.4742 55.3944C33.3948 55.3569 33.3165 55.3174 33.239 55.2761C33.1616 55.2347 33.0852 55.1914 33.0099 55.1463C32.9347 55.1012 32.8605 55.0542 32.7874 55.0053C32.7145 54.9566 32.6428 54.9062 32.5722 54.8538C32.5016 54.8015 32.4326 54.7476 32.3647 54.6918C32.2968 54.6361 32.2303 54.5788 32.1652 54.5199C32.1002 54.4608 32.0368 54.4004 31.9746 54.3383C31.9125 54.2763 31.8519 54.2127 31.7928 54.1477C31.7337 54.0826 31.6764 54.0163 31.6206 53.9484C31.565 53.8807 31.5109 53.8115 31.4585 53.7409C31.4062 53.6705 31.3555 53.5988 31.3066 53.5257C31.2579 53.4528 31.2107 53.3786 31.1657 53.3034C31.1204 53.228 31.0771 53.1517 31.0356 53.0742C30.9942 52.9969 30.9547 52.9185 30.9171 52.8391C30.8795 52.7597 30.8438 52.6795 30.8103 52.5984C30.7767 52.5173 30.7451 52.4354 30.7154 52.3527C30.6858 52.2701 30.6582 52.1867 30.6327 52.1027C30.6072 52.0187 30.5838 51.9341 30.5623 51.8489C30.541 51.7638 30.5218 51.678 30.5046 51.5919C30.4875 51.5058 30.4724 51.4193 30.4595 51.3324C30.4467 51.2456 30.4359 51.1585 30.4273 51.071C30.4187 50.9838 30.4121 50.8961 30.4079 50.8085C30.4035 50.7208 30.4014 50.633 30.4014 50.5452C30.4014 50.4573 30.4035 50.3697 30.4079 50.2818C30.4121 50.1942 30.4187 50.1066 30.4273 50.0193C30.4359 49.9318 30.4467 49.8448 30.4595 49.7579C30.4724 49.671 30.4875 49.5845 30.5046 49.4984C30.5218 49.4123 30.541 49.3266 30.5623 49.2414C30.5838 49.1563 30.6072 49.0717 30.6327 48.9877C30.6582 48.9037 30.6858 48.8203 30.7154 48.7376C30.7451 48.6549 30.7767 48.573 30.8103 48.4919C30.8438 48.4108 30.8795 48.3306 30.9171 48.2512C30.9547 48.1718 30.9942 48.0936 31.0356 48.0161C31.0771 47.9386 31.1204 47.8623 31.1657 47.7869C31.2107 47.7117 31.2579 47.6375 31.3066 47.5646C31.3555 47.4916 31.4062 47.4198 31.4585 47.3495C31.5109 47.2789 31.565 47.2096 31.6206 47.1419C31.6764 47.0741 31.7337 47.0077 31.7928 46.9427C31.8519 46.8777 31.9125 46.814 31.9746 46.752C32.493 46.2358 33.0684 45.8443 33.7312 45.5818V26.3624C33.0923 26.0999 32.493 25.7127 31.9746 25.1921C31.881 25.0987 31.7911 25.0019 31.7048 24.902C31.6185 24.8019 31.536 24.6987 31.4572 24.5926C31.3785 24.4864 31.3037 24.3774 31.2332 24.2658C31.1624 24.1542 31.096 24.0401 31.0337 23.9235C30.9716 23.8069 30.9137 23.6882 30.8603 23.5672C30.8068 23.4463 30.7579 23.3238 30.7136 23.1991C30.6691 23.0747 30.6294 22.9488 30.5945 22.8213C30.5594 22.694 30.5291 22.5653 30.5036 22.4356C30.4781 22.306 30.4574 22.1756 30.4415 22.0444C30.4256 21.9132 30.4144 21.7816 30.4083 21.6495C30.4022 21.5175 30.401 21.3854 30.4047 21.2535C30.4081 21.1213 30.4167 20.9894 30.43 20.858C30.4434 20.7264 30.4616 20.5956 30.4846 20.4656C30.5076 20.3354 30.5355 20.2063 30.5681 20.0782C30.6007 19.9501 30.6381 19.8235 30.6801 19.6981C30.7219 19.5728 30.7685 19.4493 30.8197 19.3274L22.879 11.3911L1.92266 32.3254C1.8705 32.3776 1.81968 32.4311 1.77 32.4857C1.72033 32.5404 1.67219 32.5962 1.6254 32.6532C1.57841 32.7103 1.53315 32.7684 1.48904 32.8277C1.44512 32.8869 1.40254 32.9472 1.3615 33.0085C1.32046 33.0699 1.28095 33.1322 1.24298 33.1955C1.20501 33.2588 1.16876 33.3231 1.13385 33.3881C1.09914 33.4531 1.06577 33.5191 1.03432 33.5858C1.00267 33.6524 0.972754 33.7199 0.944561 33.7881C0.916177 33.8562 0.889711 33.9251 0.864779 33.9945C0.839847 34.0641 0.816832 34.1341 0.795352 34.2047C0.773873 34.2753 0.754119 34.3464 0.736283 34.418C0.718255 34.4897 0.702145 34.5616 0.687761 34.6339C0.673377 34.7064 0.660719 34.7791 0.649788 34.8522C0.639048 34.925 0.630034 34.9983 0.622746 35.0718C0.615458 35.1452 0.610088 35.2189 0.606444 35.2925C0.6028 35.3662 0.601074 35.44 0.601074 35.5138C0.601074 35.5877 0.6028 35.6613 0.606444 35.735C0.610088 35.8088 0.615458 35.8824 0.622746 35.9557C0.630034 36.0292 0.639048 36.1024 0.649788 36.1755C0.660719 36.2486 0.673377 36.3212 0.687761 36.3935C0.702145 36.4658 0.718255 36.538 0.736283 36.6095C0.754119 36.681 0.773873 36.7522 0.795352 36.8228C0.816832 36.8935 0.839847 36.9635 0.864779 37.033C0.889711 37.1024 0.916177 37.1712 0.944561 37.2395C0.972754 37.3076 1.00267 37.3751 1.03432 37.4418C1.06577 37.5086 1.09914 37.5744 1.13385 37.6394C1.16876 37.7046 1.20501 37.7686 1.24298 37.8319C1.28095 37.8952 1.32046 37.9575 1.3615 38.0189C1.40254 38.0803 1.44512 38.1407 1.48904 38.2C1.53315 38.2592 1.57841 38.3173 1.6254 38.3743C1.67219 38.4313 1.72033 38.4873 1.77 38.5419C1.81968 38.5966 1.8705 38.6499 1.92266 38.7021L32.4865 69.2615C32.5387 69.3136 32.592 69.3645 32.6466 69.4139C32.7013 69.4636 32.7571 69.5117 32.8142 69.5585C32.8712 69.6053 32.9293 69.6508 32.9886 69.6947C33.0478 69.7386 33.1081 69.7812 33.1694 69.8222C33.2308 69.8631 33.2931 69.9026 33.3562 69.9406C33.4195 69.9786 33.4838 70.0148 33.5488 70.0497C33.6138 70.0844 33.6798 70.1176 33.7465 70.149C33.8131 70.1807 33.8806 70.2106 33.9487 70.2388C34.0167 70.267 34.0856 70.2937 34.155 70.3184C34.2246 70.3433 34.2946 70.3665 34.3652 70.3878C34.4358 70.4093 34.5067 70.4291 34.5785 70.4469C34.65 70.4649 34.7219 70.481 34.7942 70.4954C34.8665 70.5098 34.9392 70.5225 35.0123 70.5332C35.0852 70.5441 35.1584 70.5531 35.2319 70.5604C35.3052 70.5675 35.3788 70.5731 35.4524 70.5765C35.5261 70.5802 35.5999 70.5821 35.6736 70.5821C35.7474 70.5821 35.8212 70.5802 35.8949 70.5765C35.9685 70.5731 36.042 70.5675 36.1154 70.5604C36.1889 70.5531 36.2622 70.5441 36.335 70.5332C36.4081 70.5225 36.4808 70.5098 36.5531 70.4954C36.6254 70.481 36.6973 70.4649 36.7689 70.4469C36.8406 70.4291 36.9115 70.4093 36.9821 70.3878C37.0527 70.3665 37.1227 70.3433 37.1923 70.3184C37.2617 70.2937 37.3304 70.267 37.3987 70.2388C37.4668 70.2106 37.5343 70.1807 37.6008 70.149C37.6676 70.1176 37.7335 70.0844 37.7986 70.0497C37.8636 70.0148 37.9278 69.9786 37.9909 69.9406C38.0542 69.9026 38.1165 69.8631 38.1779 69.8222C38.2393 69.7812 38.2995 69.7386 38.3588 69.6947C38.418 69.6508 38.4761 69.6053 38.5331 69.5585C38.5902 69.5117 38.646 69.4636 38.7007 69.4139C38.7554 69.3645 38.8087 69.3136 38.8608 69.2615L69.2824 38.8879C69.3345 38.8359 69.3855 38.7824 69.4352 38.7278C69.4847 38.6731 69.533 38.6173 69.5798 38.5603C69.6266 38.5032 69.6721 38.4451 69.716 38.3858C69.7601 38.3265 69.8025 38.2663 69.8435 38.205C69.8846 38.1436 69.9241 38.0813 69.962 38.018C70 37.9547 70.0365 37.8904 70.0712 37.8254C70.1061 37.7604 70.1393 37.6944 70.1709 37.6277C70.2024 37.5609 70.2323 37.4936 70.2607 37.4253C70.2889 37.3573 70.3155 37.2884 70.3402 37.219C70.3652 37.1494 70.3884 37.0794 70.4099 37.0088C70.4313 36.9382 70.4509 36.8671 70.4689 36.7955C70.4868 36.7238 70.5031 36.6519 70.5175 36.5796C70.5318 36.5071 70.5445 36.4344 70.5552 36.3613C70.5662 36.2884 70.5752 36.2152 70.5825 36.1417C70.5896 36.0683 70.5951 35.9946 70.5988 35.921C70.6024 35.8473 70.6041 35.7735 70.6041 35.6997C70.6041 35.6258 70.6024 35.5522 70.5988 35.4783C70.5951 35.4047 70.5896 35.3311 70.5825 35.2576C70.5752 35.1841 70.5662 35.1111 70.5552 35.038C70.5445 34.9649 70.5318 34.8923 70.5175 34.8199C70.5031 34.7475 70.4868 34.6755 70.4689 34.604C70.4509 34.5325 70.4313 34.4613 70.4099 34.3907C70.3884 34.32 70.3652 34.25 70.3402 34.1805C70.3155 34.1111 70.2889 34.0423 70.2607 33.974C70.2323 33.9059 70.2024 33.8384 70.1709 33.7717C70.1393 33.7049 70.1061 33.6391 70.0712 33.5739C70.0365 33.5089 70 33.4447 69.962 33.3814C69.9241 33.3181 69.8846 33.2559 69.8435 33.1946C69.8025 33.1332 69.7601 33.0728 69.716 33.0135C69.6721 32.9543 69.6266 32.8962 69.5798 32.8392C69.533 32.7822 69.4847 32.7262 69.4352 32.6716C69.3855 32.6169 69.3345 32.5636 69.2824 32.5114" fill="#F03C2E"/>
</g>
</svg>
