<svg width="70" height="70" viewBox="0 0 70 70" fill="none" xmlns="http://www.w3.org/2000/svg">
<rect width="70" height="70" rx="35" fill="#E44D26"/>
<rect width="70" height="70" rx="35" fill="#E44D26"/>
<path fill-rule="evenodd" clip-rule="evenodd" d="M55.3722 20L51.2396 58.262L35.1182 64.5047L18.8147 58.262L15 20H35.1182H55.3722ZM26.863 32.2488H46.904V27H24V42.2693H40.4623V49.4268L33.7819 50.6198L28.0559 49.4268V45.8481H24V53.2442L35.2134 56.3458L45.7111 53.2442V37.7363H26.863V32.2488Z" fill="white"/>
<path d="M16.3174 8.33398H19.3799V12.0938H22.2236V8.33398H25.2861V18H22.2236V14.0625H19.3799V18H16.3174V8.33398ZM28.7109 18V10.5625H26.5234V8.33398H34.0088V10.5625H31.7734V18H28.7109ZM35.2461 8.33398H38.0898L40.4961 12.0938L42.9023 8.33398H45.8145V18H42.6836V12.75L40.4277 16.5713H39.7646L37.4336 12.75V18H35.2461V8.33398ZM48.1523 8.33398H51.2148V16.0312H54.4961V18H48.1523V8.33398Z" fill="white"/>
</svg>
