<svg width="70" height="70" viewBox="0 0 70 70" fill="none" xmlns="http://www.w3.org/2000/svg">
<mask id="mask0_201_198" style="mask-type:luminance" maskUnits="userSpaceOnUse" x="57" y="32" width="12" height="13">
<path d="M57.96 32.2002H68.7888V44.4269H57.96V32.2002Z" fill="white"/>
</mask>
<g mask="url(#mask0_201_198)">
<path d="M63.3806 32.2012C63.216 32.2012 63.056 32.2351 62.9143 32.3153L58.4334 34.9042C58.1436 35.0714 57.9673 35.3871 57.9673 35.7229V40.8916C57.9673 41.2272 58.1436 41.5425 58.4334 41.7101L59.6037 42.3847C60.1723 42.6653 60.3819 42.6607 60.6408 42.6607C61.4824 42.6607 61.9629 42.1497 61.9629 41.2614V36.1618C61.9629 36.0898 61.9006 36.0382 61.8299 36.0382H61.2686C61.1966 36.0382 61.1353 36.0911 61.1353 36.1618V41.2638C61.1353 41.6574 60.7255 42.0535 60.0604 41.7206L58.8439 41.0068C58.8009 40.9834 58.7677 40.9406 58.7677 40.8927V35.724C58.7677 35.6749 58.8005 35.625 58.8439 35.6002L63.3154 33.0206C63.3573 32.9965 63.4072 32.9965 63.4486 33.0206L67.92 35.6002C67.9627 35.6257 67.9962 35.6735 67.9962 35.724V40.8927C67.9962 40.9421 67.9716 40.9926 67.9297 41.0164L63.4488 43.596C63.4091 43.619 63.3562 43.619 63.3155 43.596L62.1644 42.9108C62.1299 42.8908 62.0832 42.8922 62.0503 42.9108C61.7325 43.0909 61.6727 43.1119 61.3749 43.2154C61.3014 43.2409 61.1897 43.2807 61.413 43.4059L62.9161 44.2922C63.0592 44.375 63.2186 44.4158 63.3823 44.4158C63.5483 44.4158 63.7053 44.3763 63.8486 44.2922L68.3295 41.7124C68.6195 41.5436 68.7958 41.2295 68.7958 40.8939V35.7252C68.7958 35.3895 68.6195 35.0745 68.3295 34.9066L63.8486 32.3177C63.7082 32.2374 63.5471 32.2035 63.3823 32.2035L63.3806 32.2012ZM64.5794 35.8944C63.3033 35.8944 62.5435 36.4378 62.5435 37.3413C62.5435 38.3202 63.2977 38.5907 64.5223 38.7117C65.9874 38.8554 66.1017 39.0707 66.1017 39.359C66.1017 39.8596 65.703 40.0729 64.7602 40.0729C63.576 40.0729 63.3157 39.7772 63.2286 39.1866C63.2182 39.1233 63.1695 39.0725 63.105 39.0725H62.5231C62.5056 39.0728 62.4888 39.0765 62.4726 39.0834C62.4566 39.0902 62.4422 39.0998 62.4298 39.1122C62.4174 39.1248 62.4077 39.139 62.401 39.1551C62.3941 39.1713 62.3904 39.188 62.39 39.2057C62.39 39.9601 62.8002 40.8524 64.7589 40.8524C66.1768 40.8524 66.9947 40.2967 66.9947 39.3198C66.9947 38.3541 66.3341 38.093 64.9587 37.9109C63.5704 37.7257 63.4366 37.6371 63.4366 37.3112C63.4366 37.0423 63.5489 36.6828 64.5783 36.6828C65.4976 36.6828 65.8374 36.8813 65.9768 37.5015C65.989 37.5596 66.0403 37.6072 66.1004 37.6072H66.6823C66.7178 37.6072 66.7525 37.5853 66.7774 37.5596C66.8017 37.5323 66.819 37.5015 66.8155 37.4645C66.7257 36.3962 66.0136 35.8939 64.5797 35.8939L64.5794 35.8944Z" fill="#83CD29"/>
</g>
<mask id="mask1_201_198" style="mask-type:luminance" maskUnits="userSpaceOnUse" x="1" y="25" width="54" height="20">
<path d="M1.20312 25.3867H54.4593V44.5201H1.20312V25.3867Z" fill="white"/>
</mask>
<g mask="url(#mask1_201_198)">
<path d="M37.0365 25.4246C36.9856 25.4248 36.938 25.4373 36.8937 25.4627C36.8722 25.4754 36.8525 25.4906 36.8349 25.5082C36.8172 25.5261 36.8022 25.5458 36.7896 25.5675C36.7771 25.5892 36.7676 25.6122 36.761 25.6364C36.7546 25.6605 36.7512 25.6853 36.7512 25.7102V32.9919C36.7512 33.0633 36.7178 33.1273 36.6558 33.1632C36.625 33.1813 36.5917 33.1902 36.5559 33.1902C36.5202 33.1902 36.487 33.1813 36.4561 33.1632L35.2668 32.478C35.2236 32.4528 35.1776 32.4339 35.1291 32.4207C35.0808 32.4078 35.0316 32.4012 34.9815 32.4012C34.9314 32.4012 34.8821 32.4078 34.8337 32.4207C34.7853 32.4339 34.7394 32.4528 34.696 32.478L29.9491 35.2193C29.7716 35.3216 29.6635 35.5188 29.6635 35.7237V41.2063C29.6633 41.2564 29.6699 41.3058 29.6828 41.3543C29.6958 41.4026 29.7147 41.4487 29.7397 41.4921C29.7649 41.5355 29.7951 41.5751 29.8305 41.6104C29.866 41.646 29.9054 41.6762 29.949 41.7012L34.6964 44.4425C34.7396 44.4679 34.7855 44.4868 34.834 44.4999C34.8823 44.5129 34.9315 44.5194 34.9817 44.5194C35.0318 44.5194 35.081 44.5129 35.1295 44.4999C35.1778 44.4868 35.2238 44.4679 35.2671 44.4425L40.0146 41.7012C40.058 41.6762 40.0973 41.646 40.1329 41.6104C40.1684 41.5751 40.1987 41.5355 40.2237 41.4921C40.2488 41.4487 40.2678 41.4026 40.2807 41.3543C40.2937 41.3058 40.3 41.2564 40.3 41.2063V27.5377C40.3 27.3297 40.1865 27.1347 40.0051 27.0333L37.1794 25.4525C37.1349 25.4279 37.0859 25.4235 37.0366 25.4238L37.0365 25.4246ZM6.49714 32.2684C6.40654 32.2722 6.3216 32.2879 6.24029 32.3351L1.49305 35.0764C1.44949 35.1013 1.41011 35.1316 1.37456 35.167C1.33902 35.2025 1.30876 35.2419 1.28378 35.2853C1.25863 35.3288 1.23967 35.3748 1.22691 35.4233C1.21397 35.4718 1.20759 35.5212 1.20777 35.5713L1.21743 42.9293C1.21743 43.0318 1.27029 43.1267 1.36016 43.1767C1.44839 43.2296 1.55777 43.2296 1.64545 43.1767L4.46149 41.5585C4.64014 41.4526 4.75644 41.2679 4.75644 41.0637V37.6272C4.75644 37.4221 4.86417 37.2342 5.04209 37.1323L6.24084 36.4375C6.32907 36.3861 6.42404 36.3608 6.52613 36.3613C6.62821 36.3606 6.72337 36.3861 6.8116 36.4375L8.0098 37.1319C8.18753 37.2338 8.29527 37.4219 8.29527 37.6266V41.0628C8.29527 41.2674 8.4143 41.4531 8.59003 41.5578L11.4061 43.176C11.4947 43.2288 11.6039 43.2288 11.6915 43.176C11.7787 43.1256 11.8343 43.0307 11.8343 42.9286L11.8438 35.5707C11.8441 35.5204 11.8377 35.4712 11.825 35.4225C11.812 35.3741 11.7933 35.3281 11.7681 35.2846C11.743 35.2412 11.7127 35.2016 11.6771 35.1662C11.6416 35.1309 11.602 35.1006 11.5585 35.0758L6.81123 32.3354C6.73102 32.2884 6.64553 32.2725 6.55438 32.2687H6.49751L6.49714 32.2684ZM49.1565 32.3351C49.0544 32.3349 48.9593 32.3602 48.871 32.4113L44.1236 35.1528C43.9464 35.2552 43.838 35.4426 43.838 35.6475V41.1301C43.838 41.3363 43.9541 41.5229 44.1329 41.6248L48.8422 44.3104C49.0159 44.4097 49.2283 44.4172 49.4035 44.3197L52.2576 42.7301C52.3481 42.6798 52.4093 42.5859 52.4097 42.4827C52.4099 42.3795 52.3563 42.2866 52.2668 42.2353L47.4907 39.4938C47.4014 39.4428 47.3387 39.3394 47.3387 39.2368V37.5224C47.3387 37.4199 47.4021 37.326 47.4907 37.275L48.9749 36.4182C49.0632 36.3672 49.1716 36.3672 49.2606 36.4182L50.7481 37.275C50.7698 37.2874 50.7895 37.3025 50.8073 37.3202C50.825 37.3379 50.8401 37.3578 50.8527 37.3794C50.8653 37.4011 50.8748 37.4241 50.8812 37.4484C50.8875 37.4726 50.8908 37.4972 50.8908 37.5224V38.8739C50.8906 38.899 50.8939 38.9236 50.9003 38.9479C50.9069 38.9721 50.9163 38.9951 50.9287 39.0168C50.9413 39.0387 50.9564 39.0584 50.9741 39.076C50.992 39.0937 51.0117 39.1088 51.0334 39.1214C51.1223 39.1727 51.2302 39.173 51.319 39.1214L54.1633 37.4651C54.3398 37.3623 54.4488 37.1744 54.4488 36.9702V35.6473C54.4488 35.5972 54.4424 35.548 54.4295 35.4995C54.4165 35.451 54.3974 35.405 54.3724 35.3617C54.3473 35.3181 54.317 35.2787 54.2816 35.2432C54.2463 35.2078 54.2067 35.1775 54.1633 35.1524L49.4445 32.4111C49.3563 32.3599 49.2611 32.3345 49.159 32.3349L49.1565 32.3351ZM34.9618 36.4282C34.9888 36.4281 35.0141 36.4344 35.038 36.4472L36.6648 37.3895C36.7089 37.415 36.741 37.4622 36.741 37.5132V39.3978C36.741 39.449 36.7093 39.4962 36.6648 39.5216L35.038 40.4638C34.9937 40.489 34.9396 40.489 34.8951 40.4638L33.2683 39.5216C33.224 39.496 33.1921 39.4488 33.1921 39.3978V37.5138C33.1921 37.4626 33.2242 37.4159 33.2683 37.39L34.8951 36.4478C34.9173 36.435 34.937 36.429 34.9618 36.429V36.4282Z" fill="#404137"/>
</g>
<path d="M20.7588 32.3076C20.6567 32.3074 20.5616 32.3328 20.4731 32.3838L15.7257 35.1156C15.5484 35.2181 15.4404 35.4153 15.4404 35.62V41.1026C15.4403 41.1528 15.4466 41.2022 15.4596 41.2507C15.4725 41.2992 15.4915 41.3451 15.5164 41.3885C15.5416 41.432 15.5719 41.4714 15.6072 41.5068C15.6428 41.5423 15.6823 41.5724 15.7257 41.5974L20.4731 44.3389C20.5165 44.364 20.5623 44.3832 20.6108 44.3961C20.6591 44.4092 20.7085 44.4158 20.7586 44.4158C20.8086 44.4158 20.858 44.4092 20.9063 44.3961C20.9548 44.3832 21.0005 44.364 21.0439 44.3389L25.7913 41.5974C25.8347 41.5724 25.8743 41.5421 25.9096 41.5068C25.9452 41.4712 25.9754 41.4319 26.0004 41.3883C26.0256 41.3449 26.0445 41.299 26.0575 41.2505C26.0704 41.202 26.0768 41.1528 26.0768 41.1026V35.6202C26.0768 35.4153 25.9689 35.2181 25.7911 35.1158L21.0437 32.384C20.9555 32.3328 20.8603 32.3074 20.7582 32.3078L20.7588 32.3076ZM49.148 37.2001C49.129 37.2001 49.1081 37.2001 49.0909 37.2094L48.1775 37.7426C48.1603 37.7521 48.1465 37.7654 48.1363 37.7826C48.1261 37.7995 48.1208 37.8179 48.1204 37.8376V38.8847C48.1204 38.9243 48.1434 38.9602 48.1775 38.98L49.0909 39.5036C49.1068 39.5134 49.1243 39.5183 49.1431 39.5183C49.1618 39.5183 49.1793 39.5134 49.1954 39.5036L50.1087 38.98C50.1424 38.9605 50.1657 38.9243 50.1657 38.8847V37.8376C50.1657 37.7982 50.1426 37.7623 50.1087 37.7425L49.1954 37.2093C49.1784 37.1992 49.1668 37.2 49.1478 37.2L49.148 37.2001Z" fill="#83CD29"/>
</svg>
