<svg width="70" height="63" viewBox="0 0 70 63" fill="none" xmlns="http://www.w3.org/2000/svg">
<path d="M40.4314 31.1841C40.4314 31.3805 40.4218 31.5768 40.4026 31.7721C40.3834 31.9675 40.3546 32.1618 40.3162 32.3543C40.2778 32.5472 40.2299 32.7373 40.1732 32.9255C40.1161 33.1136 40.0499 33.2984 39.9745 33.4798C39.8996 33.6612 39.8156 33.8384 39.723 34.0116C39.6304 34.1849 39.5291 34.3534 39.4202 34.5165C39.3107 34.6802 39.1941 34.8376 39.0693 34.9898C38.9445 35.1415 38.8125 35.2869 38.6738 35.4256C38.5346 35.5648 38.3892 35.6963 38.2375 35.8211C38.0854 35.9459 37.9279 36.0625 37.7643 36.1719C37.6011 36.2809 37.4326 36.3817 37.2593 36.4743C37.0861 36.567 36.9085 36.6509 36.7271 36.7263C36.5452 36.8012 36.3604 36.8674 36.1722 36.9245C35.9841 36.9816 35.794 37.0292 35.6011 37.0676C35.4081 37.106 35.2142 37.1348 35.0184 37.154C34.823 37.1731 34.6267 37.1827 34.4304 37.1827C34.2337 37.1827 34.0378 37.1731 33.842 37.154C33.6467 37.1348 33.4523 37.106 33.2593 37.0676C33.0669 37.0292 32.8763 36.9816 32.6882 36.9245C32.5 36.8674 32.3152 36.8012 32.1338 36.7263C31.9524 36.6509 31.7748 36.567 31.6015 36.4743C31.4283 36.3817 31.2598 36.2809 31.0961 36.1719C30.9329 36.0625 30.775 35.9459 30.6234 35.8211C30.4712 35.6963 30.3258 35.5648 30.1871 35.4256C30.0479 35.2869 29.9159 35.1415 29.7916 34.9898C29.6668 34.8376 29.5497 34.6802 29.4407 34.5165C29.3313 34.3534 29.2305 34.1849 29.1379 34.0116C29.0452 33.8384 28.9612 33.6612 28.8859 33.4798C28.811 33.2984 28.7448 33.1136 28.6877 32.9255C28.6305 32.7373 28.583 32.5472 28.5446 32.3543C28.5062 32.1618 28.4774 31.9675 28.4582 31.7721C28.439 31.5768 28.429 31.3805 28.429 31.1841C28.429 30.9878 28.439 30.7915 28.4582 30.5962C28.4774 30.4004 28.5062 30.2065 28.5446 30.014C28.583 29.821 28.6305 29.631 28.6877 29.4428C28.7448 29.2547 28.811 29.0699 28.8859 28.8885C28.9612 28.707 29.0452 28.5295 29.1379 28.3562C29.2305 28.1829 29.3313 28.0149 29.4407 27.8513C29.5497 27.6881 29.6668 27.5302 29.7916 27.3785C29.9159 27.2268 30.0479 27.0814 30.1871 26.9422C30.3258 26.8035 30.4712 26.6715 30.6234 26.5472C30.775 26.4224 30.9329 26.3053 31.0961 26.1964C31.2598 26.0874 31.4283 25.9861 31.6015 25.8935C31.7748 25.8009 31.9524 25.7173 32.1338 25.642C32.3152 25.5666 32.5 25.5009 32.6882 25.4438C32.8763 25.3867 33.0669 25.3391 33.2593 25.3007C33.4523 25.2623 33.6467 25.2335 33.842 25.2143C34.0378 25.1951 34.2337 25.1855 34.4304 25.1855C34.6267 25.1855 34.823 25.1951 35.0184 25.2143C35.2142 25.2335 35.4081 25.2623 35.6011 25.3007C35.794 25.3391 35.9841 25.3867 36.1722 25.4438C36.3604 25.5009 36.5452 25.5666 36.7271 25.642C36.9085 25.7173 37.0861 25.8009 37.2593 25.8935C37.4326 25.9861 37.6011 26.0874 37.7643 26.1964C37.9279 26.3053 38.0854 26.4224 38.2375 26.5472C38.3892 26.6715 38.5346 26.8035 38.6738 26.9422C38.8125 27.0814 38.9445 27.2268 39.0693 27.3785C39.1941 27.5302 39.3107 27.6881 39.4202 27.8513C39.5291 28.0149 39.6304 28.1829 39.723 28.3562C39.8156 28.5295 39.8996 28.707 39.9745 28.8885C40.0499 29.0699 40.1161 29.2547 40.1732 29.4428C40.2299 29.631 40.2778 29.821 40.3162 30.014C40.3546 30.2065 40.3834 30.4004 40.4026 30.5962C40.4218 30.7915 40.4314 30.9878 40.4314 31.1841Z" fill="#10162F"/>
<mask id="mask0_305_2" style="mask-type:luminance" maskUnits="userSpaceOnUse" x="0" y="2" width="69" height="58">
<path d="M0 2.75098H68.1674V59.7631H0V2.75098Z" fill="white"/>
</mask>
<g mask="url(#mask0_305_2)">
<path d="M34.4314 18.9902C42.4886 18.9902 49.9741 20.146 55.6175 22.0884C62.4177 24.4282 66.5982 27.9752 66.5982 31.1871C66.5982 34.5339 62.1676 38.3021 54.8654 40.7206C49.3449 42.5488 42.0801 43.503 34.4314 43.503C26.5897 43.503 19.1637 42.6074 13.5812 40.7005C6.51808 38.2872 2.26367 34.4701 2.26367 31.1871C2.26367 28.0011 6.25554 24.4815 12.9597 22.145C18.6242 20.1709 26.2941 18.9902 34.4309 18.9902H34.4314Z" stroke="#10162F" stroke-width="2.90543"/>
</g>
<mask id="mask1_305_2" style="mask-type:luminance" maskUnits="userSpaceOnUse" x="0" y="0" width="70" height="63">
<path d="M0 0H69.8771V62.4799H0V0Z" fill="white"/>
</mask>
<g mask="url(#mask1_305_2)">
<path d="M23.808 25.1201C27.8334 18.1434 32.574 12.2398 37.0766 8.32234C42.5016 3.60333 47.6632 1.75546 50.447 3.3595C53.3474 5.0317 54.3995 10.751 52.8473 18.2826C51.6752 23.9764 48.8717 30.7434 45.0507 37.3669C41.1333 44.157 36.6475 50.1397 32.2059 54.0198C26.586 58.9308 21.1528 60.7076 18.308 59.0676C15.5473 57.4774 14.4914 52.2612 15.8156 45.2892C16.9349 39.3977 19.7431 32.167 23.8065 25.1216L23.808 25.1201Z" stroke="#10162F" stroke-width="2.90543"/>
</g>
<mask id="mask2_305_2" style="mask-type:luminance" maskUnits="userSpaceOnUse" x="0" y="0" width="70" height="63">
<path d="M0 0H70V62.4799H0V0Z" fill="white"/>
</mask>
<g mask="url(#mask2_305_2)">
<path d="M23.8179 37.3849C19.7819 30.4163 17.0331 23.3613 15.886 17.5057C14.5052 10.4507 15.4814 5.05685 18.2618 3.44753C21.1599 1.77054 26.642 3.71583 32.3944 8.82122C36.7434 12.6811 41.209 18.4872 45.041 25.1035C48.9695 31.8874 51.9146 38.76 53.0598 44.544C54.5093 51.8635 53.3362 57.4556 50.4934 59.1009C47.7355 60.6972 42.6882 59.0073 37.3064 54.378C32.7592 50.4663 27.8943 44.4231 23.8179 37.3839V37.3849Z" stroke="#10162F" stroke-width="2.90543"/>
</g>
</svg>
