<svg width="70" height="70" viewBox="0 0 70 70" fill="none" xmlns="http://www.w3.org/2000/svg">
<mask id="mask0_201_502" style="mask-type:luminance" maskUnits="userSpaceOnUse" x="2" y="2" width="66" height="66">
<path d="M2.05957 2.06055H67.9296V67.9305H2.05957V2.06055Z" fill="white"/>
</mask>
<g mask="url(#mask0_201_502)">
<path d="M67.9296 58.7821C67.9296 63.8357 63.8347 67.9305 58.7811 67.9305H11.2082C6.15639 67.9305 2.05957 63.8357 2.05957 58.7821V11.2092C2.05957 6.15555 6.15639 2.06055 11.2082 2.06055H58.7811C63.8347 2.06055 67.9296 6.15555 67.9296 11.2092V58.7821Z" fill="#673AB7"/>
</g>
<path d="M51.5177 37.9233C50.3284 36.2765 48.6085 35.1421 46.3946 34.5384C46.3946 34.5384 48.2609 33.8613 49.9442 31.3364C50.9506 29.7262 51.4628 27.7866 51.4628 25.5178C51.4628 21.584 50.0357 18.5649 47.1813 16.4973C44.327 14.4298 41.1067 13.0391 35.6357 13.0391H18.5278V56.9524H37.6119C42.7899 56.9158 46.6873 55.7998 49.3404 53.6589C51.9753 51.4816 53.2927 48.2613 53.2927 43.9614C53.2927 41.5828 52.7072 39.5702 51.5177 37.9233ZM29.5062 20.3581C29.5062 20.3581 37.1362 20.3581 37.2825 20.3581C40.0638 20.3581 42.3143 22.6085 42.3143 25.3897C42.3143 28.1709 40.0638 30.4215 37.2825 30.4215C37.1362 30.4215 29.5062 30.4215 29.5062 30.4215V20.3581ZM38.6548 49.6336H29.5062V38.6552H38.6548C41.6922 38.6552 44.144 41.1071 44.144 44.1444C44.144 47.1817 41.6922 49.6336 38.6548 49.6336Z" fill="white"/>
</svg>
