<svg width="70" height="70" viewBox="0 0 70 70" fill="none" xmlns="http://www.w3.org/2000/svg">
<mask id="mask0_201_426" style="mask-type:luminance" maskUnits="userSpaceOnUse" x="1" y="2" width="68" height="66">
<path d="M1.83936 2.37988H68.1643V67.7132H1.83936V2.37988Z" fill="white"/>
</mask>
<g mask="url(#mask0_201_426)">
<path d="M35.0019 2.3916C16.6879 2.3916 1.83936 17.2402 1.83936 35.5541C1.83936 51.0936 12.5399 64.0961 26.9655 67.6941C26.8108 67.2464 26.7112 66.7269 26.7112 66.083V60.4149C25.3654 60.4149 23.1104 60.4149 22.5439 60.4149C20.2749 60.4149 18.2576 59.4394 17.2793 57.6265C16.1932 55.6118 16.0052 52.5306 13.3135 50.6458C12.5149 50.0186 13.1228 49.3027 14.0432 49.3995C15.7427 49.8804 17.1522 51.0465 18.4786 52.7765C19.7996 54.5093 20.4214 54.9016 22.8893 54.9016C24.0859 54.9016 25.8767 54.8325 27.5623 54.5673C28.4689 52.2653 30.0359 50.1456 31.9508 49.1452C20.9078 48.0094 15.6377 42.5155 15.6377 35.0566C15.6377 31.8454 17.0057 28.7393 19.3299 26.1221C18.5672 23.5245 17.6081 18.2267 19.6228 16.2093C24.5915 16.2093 27.5955 19.4317 28.3169 20.3021C30.7929 19.4537 33.5123 18.9729 36.3698 18.9729C39.2328 18.9729 41.9632 19.4537 44.4449 20.3076C45.1579 19.4426 48.1646 16.2093 53.1444 16.2093C55.1675 18.2295 54.1973 23.5493 53.4264 26.1415C55.7368 28.753 57.0963 31.851 57.0963 35.0566C57.0963 42.51 51.8347 48.0012 40.808 49.1425C43.8424 50.7259 46.056 55.1752 46.056 58.5274V66.083C46.056 66.3703 45.9924 66.5776 45.9592 66.8235C58.8817 62.2941 68.1643 50.024 68.1643 35.5541C68.1643 17.2402 53.3158 2.3916 35.0019 2.3916Z" fill="black"/>
</g>
</svg>
