<svg width="70" height="70" viewBox="0 0 70 70" fill="none" xmlns="http://www.w3.org/2000/svg">
<rect width="70" height="70" rx="35" fill="#10162F"/>
<path d="M35 31.9437H31.0674V45.4269C29.9438 49.0786 25.4494 45.4269 25.4494 45.4269L23.764 47.1123C27.3595 52.7302 35 49.3595 35 45.4269V31.9437Z" fill="#FFD300"/>
<path d="M51.322 34.1112L49.6328 36.7367C47.3805 34.7919 40.6237 33.2374 42.876 37.9035C51.322 40.8207 49.6328 39.9456 51.322 41.6959C52.4482 42.8627 52.3625 45.7799 51.322 47.2385C47.4931 52.6061 40.9052 49.475 38.0899 47.2385L40.6237 44.3213C45.6913 49.864 53.8558 44.3213 41.7498 41.6959C40.2483 41.0152 37.8083 38.5453 40.0606 34.1112C42.3129 29.6771 48.5067 32.2637 51.322 34.1112Z" fill="#FFD300"/>
<ellipse cx="15.0562" cy="42.8988" rx="5.05618" ry="5.05618" fill="#FFD300"/>
<ellipse cx="15.0562" cy="42.8989" rx="3.37079" ry="3.37079" fill="#FFD300"/>
<rect x="13.3708" y="12" width="46.6292" height="2.80899" fill="#FFD300"/>
<rect x="13.3708" y="35.0337" width="20.2247" height="2.80899" transform="rotate(-90 13.3708 35.0337)" fill="#FFD300"/>
<rect x="57.191" y="58.6292" width="46.6292" height="2.80899" transform="rotate(-90 57.191 58.6292)" fill="#FFD300"/>
<rect x="13.3708" y="55.8203" width="46.6292" height="2.80899" fill="#FFD300"/>
<rect x="13.3708" y="55.8203" width="5.05618" height="3.37079" transform="rotate(-90 13.3708 55.8203)" fill="#FFD300"/>
</svg>
